# xmcd
#
# Track frame offsets: 
#        150
#        11510
#        22692
#        32287
#        43482
#        52420
#        64390
#        74155
#        83505
#        93877
#        102572
#        112822
#        123215
#        132487
#        141555
#        150832
#        161867
#        174760
#        184622
#        192325
#        215302
#
# Disc length: 4440 seconds
#
# Revision: 4
# Processed by: cddbd v1.5.2PL0 Copyright (c) Steve Scherf et al.
# Submitted via: ExactAudioCopy v0.95b4
#
DISCID=20115615
DTITLE=Bobby Vee - The Very Best Of
DYEAR=2004
DGENRE=Pop
TTITLE0=Rubber Ball
TTITLE1=More Than I Can Say
TTITLE2=How Many Tears
TTITLE3=Take Good Care Of My Baby
TTITLE4=It Doesn't Matter Anymore
TTITLE5=True Love Ways
TTITLE6=Run To Him
TTITLE7=Please Don't Ask About Barbara
TTITLE8=Walkin' With My Angel 
TTITLE9=Punish Her
TTITLE10=That'll Be The Day
TTITLE11=Peggy Sue
TTITLE12=Oh Boy
TTITLE13=Heartbeat
TTITLE14=Sharing You
TTITLE15=Forever Kind Of Love
TTITLE16=Raining In My Heart
TTITLE17=Everyday
TTITLE18=Bobby Tomorrow
TTITLE19=The Night Has A Thousand Eyes
TTITLE20=Data Track
EXTD=EMI Gold  7243  5 71441 2 4
EXTT0=1960
EXTT1=1961
EXTT2=1961
EXTT3=
EXTT4=1959
EXTT5=1958
EXTT6=1961
EXTT7=1961
EXTT8=1961
EXTT9=1962
EXTT10=1957
EXTT11=1957
EXTT12=1957
EXTT13=1958
EXTT14=1962
EXTT15=1962
EXTT16=1959
EXTT17=1960
EXTT18=1963
EXTT19=1962
EXTT20=
PLAYORDER=
